// close

1<svg xmlns="http://www.w3.org/2000/svg" width="64" height="64" viewBox="0 0 24 24"><path fill="currentColor" d="m12 10.586l4.95-4.95l1.415 1.415l-4.95 4.95l4.95 4.95l-1.415 1.414l-4.95-4.95l-4.95 4.95l-1.413-1.415l4.95-4.95l-4.95-4.95L7.05 5.638l4.95 4.95Z"/></svg>

2<svg xmlns="http://www.w3.org/2000/svg" width="64" height="64" viewBox="0 0 24 24"><path fill="currentColor" fill-rule="evenodd" d="M6.793 6.793a1 1 0 0 1 1.414 0L12 10.586l3.793-3.793a1 1 0 1 1 1.414 1.414L13.414 12l3.793 3.793a1 1 0 0 1-1.414 1.414L12 13.414l-3.793 3.793a1 1 0 0 1-1.414-1.414L10.586 12L6.793 8.207a1 1 0 0 1 0-1.414Z" clip-rule="evenodd"/></svg>

3<svg xmlns="http://www.w3.org/2000/svg" width="64" height="64" viewBox="0 0 24 24"><path fill="currentColor" d="M3 16.74L7.76 12L3 7.26L7.26 3L12 7.76L16.74 3L21 7.26L16.24 12L21 16.74L16.74 21L12 16.24L7.26 21L3 16.74m9-3.33l4.74 4.75l1.42-1.42L13.41 12l4.75-4.74l-1.42-1.42L12 10.59L7.26 5.84L5.84 7.26L10.59 12l-4.75 4.74l1.42 1.42L12 13.41Z"/></svg>

4<svg xmlns="http://www.w3.org/2000/svg" width="64" height="64" viewBox="0 0 24 24"><g fill="none" fill-rule="evenodd"><path d="M24 0v24H0V0h24ZM12.593 23.258l-.011.002l-.071.035l-.02.004l-.014-.004l-.071-.035c-.01-.004-.019-.001-.024.005l-.004.01l-.017.428l.005.02l.01.013l.104.074l.015.004l.012-.004l.104-.074l.012-.016l.004-.017l-.017-.427c-.002-.01-.009-.017-.017-.018Zm.265-.113l-.013.002l-.185.093l-.01.01l-.003.011l.018.43l.005.012l.008.007l.201.093c.012.004.023 0 .029-.008l.004-.014l-.034-.614c-.003-.012-.01-.02-.02-.022Zm-.715.002a.023.023 0 0 0-.027.006l-.006.014l-.034.614c0 .012.007.02.017.024l.015-.002l.201-.093l.01-.008l.004-.011l.017-.43l-.003-.012l-.01-.01l-.184-.092Z"/><path fill="currentColor" d="m12 14.121l5.303 5.304a1.5 1.5 0 0 0 2.122-2.122L14.12 12l5.304-5.303a1.5 1.5 0 1 0-2.122-2.121L12 9.879L6.697 4.576a1.5 1.5 0 1 0-2.122 2.12L9.88 12l-5.304 5.303a1.5 1.5 0 1 0 2.122 2.122L12 14.12Z"/></g></svg>

5<svg xmlns="http://www.w3.org/2000/svg" width="64" height="64" viewBox="0 0 24 24"><g id="evaCloseFill0"><g id="evaCloseFill1"><path id="evaCloseFill2" fill="currentColor" d="m13.41 12l4.3-4.29a1 1 0 1 0-1.42-1.42L12 10.59l-4.29-4.3a1 1 0 0 0-1.42 1.42l4.3 4.29l-4.3 4.29a1 1 0 0 0 0 1.42a1 1 0 0 0 1.42 0l4.29-4.3l4.29 4.3a1 1 0 0 0 1.42 0a1 1 0 0 0 0-1.42Z"/></g></g></svg>

6<svg xmlns="http://www.w3.org/2000/svg" width="64" height="64" viewBox="0 0 32 32"><path fill="currentColor" d="M16 2C8.2 2 2 8.2 2 16s6.2 14 14 14s14-6.2 14-14S23.8 2 16 2zm5.4 21L16 17.6L10.6 23L9 21.4l5.4-5.4L9 10.6L10.6 9l5.4 5.4L21.4 9l1.6 1.6l-5.4 5.4l5.4 5.4l-1.6 1.6z"/></svg>

7<svg xmlns="http://www.w3.org/2000/svg" width="64" height="64" viewBox="0 0 1024 1024"><path fill="currentColor" d="M512 64a448 448 0 1 1 0 896a448 448 0 0 1 0-896zm0 393.664L407.936 353.6a38.4 38.4 0 1 0-54.336 54.336L457.664 512L353.6 616.064a38.4 38.4 0 1 0 54.336 54.336L512 566.336L616.064 670.4a38.4 38.4 0 1 0 54.336-54.336L566.336 512L670.4 407.936a38.4 38.4 0 1 0-54.336-54.336L512 457.664z"/></svg>

8<svg xmlns="http://www.w3.org/2000/svg" width="64" height="64" viewBox="0 0 32 32"><path fill="currentColor" d="M16 2C8.2 2 2 8.2 2 16s6.2 14 14 14s14-6.2 14-14S23.8 2 16 2zm0 26C9.4 28 4 22.6 4 16S9.4 4 16 4s12 5.4 12 12s-5.4 12-12 12z"/><path fill="currentColor" d="M21.4 23L16 17.6L10.6 23L9 21.4l5.4-5.4L9 10.6L10.6 9l5.4 5.4L21.4 9l1.6 1.6l-5.4 5.4l5.4 5.4z"/></svg>

9<svg xmlns="http://www.w3.org/2000/svg" width="64" height="64" viewBox="0 0 20 20"><path fill="currentColor" d="M2.93 17.07A10 10 0 1 1 17.07 2.93A10 10 0 0 1 2.93 17.07zm1.41-1.41A8 8 0 1 0 15.66 4.34A8 8 0 0 0 4.34 15.66zm9.9-8.49L11.41 10l2.83 2.83l-1.41 1.41L10 11.41l-2.83 2.83l-1.41-1.41L8.59 10L5.76 7.17l1.41-1.41L10 8.59l2.83-2.83l1.41 1.41z"/></svg>



// signo positivo 
1<svg xmlns="http://www.w3.org/2000/svg" width="128" height="128" viewBox="0 0 16 16"><path fill="currentColor" d="M8 0a8 8 0 1 1 0 16A8 8 0 0 1 8 0Zm1.062 4.312a1 1 0 1 0-2 0v2.75h-2.75a1 1 0 0 0 0 2h2.75v2.75a1 1 0 1 0 2 0v-2.75h2.75a1 1 0 1 0 0-2h-2.75Z"/></svg>

2<svg xmlns="http://www.w3.org/2000/svg" width="128" height="128" viewBox="0 0 256 256"><path fill="currentColor" d="M208 32H48a16 16 0 0 0-16 16v160a16 16 0 0 0 16 16h160a16 16 0 0 0 16-16V48a16 16 0 0 0-16-16Zm-24 104h-48v48a8 8 0 0 1-16 0v-48H72a8 8 0 0 1 0-16h48V72a8 8 0 0 1 16 0v48h48a8 8 0 0 1 0 16Z"/></svg>

3<svg xmlns="http://www.w3.org/2000/svg" width="128" height="128" viewBox="0 0 24 24"><g id="evaPlusSquareFill0"><g id="evaPlusSquareFill1"><path id="evaPlusSquareFill2" fill="currentColor" d="M18 3H6a3 3 0 0 0-3 3v12a3 3 0 0 0 3 3h12a3 3 0 0 0 3-3V6a3 3 0 0 0-3-3Zm-3 10h-2v2a1 1 0 0 1-2 0v-2H9a1 1 0 0 1 0-2h2V9a1 1 0 0 1 2 0v2h2a1 1 0 0 1 0 2Z"/></g></g></svg>

4<svg xmlns="http://www.w3.org/2000/svg" width="128" height="128" viewBox="0 0 1024 1024"><path fill="currentColor" d="M880 112H144c-17.7 0-32 14.3-32 32v736c0 17.7 14.3 32 32 32h736c17.7 0 32-14.3 32-32V144c0-17.7-14.3-32-32-32zM704 536c0 4.4-3.6 8-8 8H544v152c0 4.4-3.6 8-8 8h-48c-4.4 0-8-3.6-8-8V544H328c-4.4 0-8-3.6-8-8v-48c0-4.4 3.6-8 8-8h152V328c0-4.4 3.6-8 8-8h48c4.4 0 8 3.6 8 8v152h152c4.4 0 8 3.6 8 8v48z"/></svg>

5<svg xmlns="http://www.w3.org/2000/svg" width="128" height="128" viewBox="0 0 256 256"><path fill="currentColor" d="M208 32H48a16 16 0 0 0-16 16v160a16 16 0 0 0 16 16h160a16 16 0 0 0 16-16V48a16 16 0 0 0-16-16Zm-40 104h-32v32a8 8 0 0 1-16 0v-32H88a8 8 0 0 1 0-16h32V88a8 8 0 0 1 16 0v32h32a8 8 0 0 1 0 16Z"/></svg>



//signo negativo
1<svg xmlns="http://www.w3.org/2000/svg" width="128" height="128" viewBox="0 0 512 512"><path fill="currentColor" d="M256 0C114.6 0 0 114.6 0 256s114.6 256 256 256s256-114.6 256-256S397.4 0 256 0zm149.3 277.3c0 11.8-9.5 21.3-21.3 21.3H128c-11.8 0-21.3-9.6-21.3-21.3v-42.7c0-11.8 9.5-21.3 21.3-21.3h256c11.8 0 21.3 9.6 21.3 21.3v42.7z"/></svg>

2<svg xmlns="http://www.w3.org/2000/svg" width="128" height="128" viewBox="0 0 256 256"><path fill="currentColor" d="M208 32H48a16 16 0 0 0-16 16v160a16 16 0 0 0 16 16h160a16 16 0 0 0 16-16V48a16 16 0 0 0-16-16Zm-40 104H88a8 8 0 0 1 0-16h80a8 8 0 0 1 0 16Z"/></svg>

3<svg xmlns="http://www.w3.org/2000/svg" width="128" height="128" viewBox="0 0 1024 1024"><path fill="currentColor" d="M880 112H144c-17.7 0-32 14.3-32 32v736c0 17.7 14.3 32 32 32h736c17.7 0 32-14.3 32-32V144c0-17.7-14.3-32-32-32zM704 536c0 4.4-3.6 8-8 8H328c-4.4 0-8-3.6-8-8v-48c0-4.4 3.6-8 8-8h368c4.4 0 8 3.6 8 8v48z"/></svg>